<?xml version="1.0" standalone="no"?>
<!DOCTYPE svg PUBLIC "-//W3C//DTD SVG 20010904//EN"
 "http://www.w3.org/TR/2001/REC-SVG-20010904/DTD/svg10.dtd">
<svg version="1.0" xmlns="http://www.w3.org/2000/svg"
 width="471.000000pt" height="471.000000pt" viewBox="0 0 471.000000 471.000000"
 preserveAspectRatio="xMidYMid meet">
<metadata>
Created by potrace 1.11, written by Peter Selinger 2001-2013
</metadata>
<g transform="translate(0.000000,471.000000) scale(0.100000,-0.100000)"
fill="#000000" stroke="none">
<path d="M120 4689 c-50 -23 -87 -63 -105 -115 -9 -27 -12 -556 -11 -2227 l1
-2192 22 -42 c23 -43 60 -74 109 -94 21 -8 277 -11 904 -12 978 0 916 -5 963
71 26 40 34 55 252 462 81 151 162 302 180 335 72 133 164 304 202 375 116
216 324 604 363 675 15 28 49 91 75 140 27 50 65 119 85 155 20 36 46 86 59
113 28 58 42 33 -158 274 -92 110 -151 190 -151 203 0 12 19 56 42 98 22 43
57 106 76 142 34 63 50 82 63 77 8 -2 113 -127 450 -532 9 -11 44 -51 76 -90
85 -100 86 -102 59 -161 -13 -27 -43 -85 -68 -129 -24 -44 -69 -125 -98 -180
-29 -55 -65 -122 -80 -150 -15 -27 -49 -90 -75 -140 -26 -49 -56 -103 -65
-120 -9 -16 -39 -70 -65 -120 -26 -49 -60 -112 -75 -140 -26 -48 -63 -117
-158 -295 -25 -47 -48 -89 -52 -95 -4 -5 -33 -59 -65 -120 -32 -60 -83 -157
-115 -215 -31 -58 -76 -141 -100 -185 -23 -44 -55 -102 -70 -130 -15 -27 -42
-77 -60 -110 -18 -33 -45 -83 -60 -112 -32 -58 -30 -93 4 -94 11 0 482 -1
1046 -1 1119 -1 1064 -3 1123 56 15 15 35 41 44 59 16 30 17 175 18 2222 1
1473 -3 2201 -10 2225 -14 49 -81 116 -130 129 -28 7 -304 11 -891 11 l-851 0
-39 -26 c-43 -29 -58 -48 -90 -109 -11 -22 -34 -65 -51 -95 -17 -30 -50 -91
-73 -135 -65 -121 -319 -593 -350 -650 -15 -27 -64 -120 -110 -205 -46 -85
-95 -177 -110 -205 -63 -115 -105 -194 -245 -455 -81 -151 -162 -302 -180
-335 -70 -127 -84 -159 -75 -175 5 -9 76 -97 159 -195 83 -99 151 -188 151
-199 0 -10 -25 -66 -57 -125 -111 -209 -109 -206 -133 -188 -9 7 -108 122
-220 257 -112 135 -239 287 -282 338 -46 54 -78 102 -78 115 0 12 12 42 25 66
14 24 49 87 77 140 28 53 95 177 148 276 53 99 121 225 150 280 29 55 61 114
70 130 10 17 37 66 60 110 24 44 55 103 70 130 15 28 49 91 75 140 26 50 75
140 108 200 33 61 82 153 110 205 28 52 61 113 74 135 12 22 26 47 30 55 4 8
32 62 63 120 189 349 192 356 188 377 -3 17 -57 18 -1063 20 -1049 2 -1060 2
-1105 -18z m3093 -1138 c7 -1 -57 -130 -133 -266 -21 -38 -61 -112 -240 -445
-198 -367 -206 -382 -244 -452 -18 -35 -66 -124 -106 -198 -40 -74 -85 -157
-100 -185 -15 -27 -49 -90 -75 -140 -45 -85 -60 -112 -132 -245 -17 -30 -74
-137 -127 -236 -53 -100 -105 -189 -114 -197 -14 -13 -57 -17 -229 -22 -116
-3 -213 -2 -216 2 -3 4 24 62 60 128 35 66 83 156 107 200 23 44 60 112 81
150 63 117 165 306 205 380 21 39 67 124 102 190 36 66 86 161 113 210 26 50
60 113 75 140 61 111 160 295 205 380 26 50 60 113 75 140 15 28 49 91 75 140
26 50 51 95 55 100 4 6 29 52 55 102 26 51 54 98 61 104 8 6 77 13 166 16 84
3 154 6 155 6 1 2 113 0 126 -2z"/>
</g>
</svg>
